<!-- Generator: Adobe Illustrator 19.2.0, SVG Export Plug-In  -->
<svg version="1.1"
	 xmlns="http://www.w3.org/2000/svg" xmlns:xlink="http://www.w3.org/1999/xlink" xmlns:a="http://ns.adobe.com/AdobeSVGViewerExtensions/3.0/"
	 x="0px" y="0px" width="106.104px" height="110.966px" viewBox="0 0 106.104 110.966"
	 style="enable-background:new 0 0 106.104 110.966;" xml:space="preserve">
<defs>
</defs>
<g>
	<path id="XMLID_24_" d="M7.663,0.074h19.833c1.547-0.012,2.593,0.279,3.138,0.873c0.557,0.57,0.773,1.616,0.65,3.138
		c-0.421,6.302-0.409,11.978,0.037,17.029c0.52,5.175,1.275,7.818,2.266,7.93c0.285-0.037,0.458-0.656,0.52-1.857
		c0.025-0.47,0.049-0.792,0.074-0.966c0.198-1.065,0.767-1.585,1.708-1.56c0.866,0.174,1.287,0.817,1.263,1.931
		c-0.136,2.377-0.483,4.197-1.04,5.46c-0.619,1.3-1.442,1.937-2.47,1.913c-1.003-0.074-1.938-0.811-2.804-2.21
		c-1.251-2.031-2.074-4.995-2.47-8.895c-0.211-1.882-0.341-4.135-0.39-6.76c-0.05-2.166-0.037-5.775,0.037-10.827
		c0-0.78-0.093-1.293-0.279-1.541c-0.186-0.272-0.564-0.402-1.133-0.39H8.555C7.923,3.331,7.508,3.442,7.31,3.677
		C7.1,3.888,6.995,4.321,6.995,4.977V9.88c0.025,7.342-0.235,12.473-0.78,15.395c-0.508,3.157-1.56,5.713-3.157,7.67
		c-0.371,0.483-0.78,0.805-1.226,0.966c-0.446,0.161-0.854,0.136-1.226-0.074c-0.755-0.607-0.805-1.424-0.149-2.451
		c2.29-2.463,3.38-8.097,3.268-16.899V4.234C3.639,1.35,4.952-0.037,7.663,0.074z M22.148,5.72c0.123-0.458,0.359-0.786,0.706-0.984
		c0.371-0.21,0.761-0.241,1.17-0.093c0.396,0.136,0.681,0.396,0.854,0.78c0.149,0.371,0.155,0.793,0.019,1.263
		c-1.065,3.566-2.748,7.255-5.051,11.068c2.55,3.813,4.606,7.602,6.165,11.365c0.433,1.052,0.241,1.813-0.576,2.284
		c-0.904,0.322-1.604-0.031-2.098-1.059c-1.176-2.773-2.934-6.079-5.274-9.917c-3.021,4.111-5.943,7.342-8.765,9.694
		c-0.434,0.346-0.861,0.532-1.281,0.557c-0.434,0.025-0.78-0.124-1.04-0.446c-0.248-0.322-0.328-0.699-0.241-1.133
		c0.111-0.433,0.371-0.823,0.78-1.17c3.479-2.884,6.45-6.301,8.914-10.251c-2.414-3.702-4.544-6.574-6.388-8.617
		c-0.669-0.78-0.681-1.486-0.037-2.117c0.322-0.247,0.699-0.34,1.133-0.279c0.409,0.062,0.786,0.266,1.133,0.613
		c1.287,1.238,3.243,3.764,5.868,7.577C19.92,11.848,21.257,8.802,22.148,5.72z"/>
	<path id="XMLID_18_" d="M74.672,0c0.842,0.05,1.281,0.526,1.319,1.43c-0.074,0.891-0.539,1.356-1.393,1.393H59.592v3.566H71.7
		c2.29-0.062,3.404,1.077,3.343,3.417v18.942c-0.025,2.092-0.947,3.485-2.767,4.178c-0.904,0.334-1.987,0.464-3.25,0.39
		s-2.674-0.347-4.234-0.817c-0.83-0.347-1.084-1.015-0.761-2.006c0.173-0.384,0.446-0.65,0.817-0.799
		c0.359-0.136,0.761-0.142,1.207-0.019c4.135,1.275,6.14,0.669,6.017-1.82V10.92c0-0.706-0.118-1.182-0.353-1.43
		c-0.223-0.247-0.675-0.365-1.356-0.353H59.592v22.545c-0.037,0.854-0.508,1.343-1.411,1.467c-0.978,0-1.498-0.415-1.56-1.244V9.137
		H46.89c-1.35-0.049-1.994,0.421-1.931,1.411v21.876c-0.05,0.866-0.545,1.331-1.486,1.393c-0.941-0.062-1.436-0.526-1.486-1.393
		V9.36c-0.013-1.139,0.235-1.913,0.743-2.321c0.495-0.446,1.411-0.662,2.748-0.65h11.142V2.823H41.765
		c-0.83-0.049-1.275-0.52-1.337-1.411C40.489,0.52,40.935,0.05,41.765,0H74.672z M48.376,19.759c2.81,1.907,4.865,3.665,6.165,5.274
		c0.582,0.78,0.582,1.461,0,2.043c-0.694,0.495-1.387,0.409-2.08-0.26c-1.535-1.634-3.516-3.293-5.943-4.977
		c-0.644-0.532-0.7-1.145-0.167-1.838C46.97,19.394,47.645,19.313,48.376,19.759z M48.747,10.697
		c2.81,1.907,4.865,3.665,6.165,5.274c0.582,0.78,0.582,1.461,0,2.043c-0.694,0.495-1.387,0.409-2.08-0.26
		c-1.535-1.634-3.516-3.293-5.943-4.977c-0.644-0.532-0.7-1.145-0.167-1.838C47.342,10.332,48.016,10.251,48.747,10.697z
		 M63.529,11.068c2.81,1.907,4.865,3.665,6.165,5.274c0.582,0.78,0.582,1.461,0,2.043c-0.694,0.495-1.387,0.409-2.08-0.26
		c-1.535-1.634-3.516-3.293-5.943-4.977c-0.644-0.532-0.7-1.145-0.167-1.838C62.124,10.703,62.799,10.622,63.529,11.068z
		 M63.529,19.611c2.81,1.907,4.865,3.665,6.165,5.274c0.582,0.78,0.582,1.461,0,2.043c-0.694,0.495-1.387,0.409-2.08-0.26
		c-1.535-1.634-3.516-3.293-5.943-4.977c-0.644-0.532-0.7-1.145-0.167-1.838C62.124,19.246,62.799,19.165,63.529,19.611z"/>
	<g id="XMLID_14_">
		<path id="XMLID_15_" d="M63.449,81.107c2.81,1.907,4.865,3.665,6.165,5.274c0.582,0.78,0.582,1.461,0,2.043
			c-0.694,0.495-1.387,0.409-2.08-0.26c-1.535-1.634-3.516-3.293-5.943-4.977c-0.644-0.532-0.7-1.145-0.167-1.838
			C62.044,80.743,62.718,80.662,63.449,81.107z M63.449,89.65c2.81,1.907,4.865,3.665,6.165,5.274c0.582,0.78,0.582,1.461,0,2.043
			c-0.694,0.495-1.387,0.409-2.08-0.26c-1.535-1.634-3.516-3.293-5.943-4.977c-0.644-0.532-0.7-1.145-0.167-1.838
			C62.044,89.285,62.718,89.204,63.449,89.65z"/>
	</g>
	<path id="XMLID_12_" d="M6.91,72.416v-33.42h18.975v5.006H12.869v10.203h11.299v5.005H12.869v13.206H6.91z"/>
	<path id="XMLID_10_" d="M28.786,72.416v-33.42h19.022v5.006H34.746v8.963h11.299v5.005H34.746v9.44h13.682v5.006H28.786z"/>
	<path id="XMLID_8_" d="M57.285,46.386c0.239,3.147,0.334,5.721,0.334,10.584v15.447h-5.673v-33.42h7.437l8.486,16.209
		c1.526,2.908,3.147,6.198,4.386,9.201h0.238c-0.238-4.052-0.238-8.105-0.238-11.347V38.997h5.626v33.42h-7.294l-8.868-16.83
		c-1.525-2.956-2.86-5.959-4.195-9.201H57.285z"/>
	<path id="XMLID_6_" d="M106.104,42l-3.814,4.243c-1.335-1.335-3.242-2.527-6.436-2.527c-4.576,0-8.915,2.527-8.915,11.585
		c0,8.915,3.003,12.634,8.963,12.634c1.43,0,3.242-0.239,4.195-0.763V55.301h5.96v14.636c-2.337,1.668-5.578,2.956-11.395,2.956
		c-9.154,0-13.825-5.721-13.825-16.972c0-12.062,6.77-17.401,15.304-17.401C102.29,38.52,105.15,40.951,106.104,42z"/>
	<path id="XMLID_4_" d="M37.295,99.238v11.251h-5.959V99.238L20.132,77.07h6.674l7.533,16.161h0.19L42.11,77.07h6.341L37.295,99.238
		z"/>
	<path id="XMLID_2_" d="M71.89,98.714V77.07h5.959v20.834c0,9.392-5.673,13.063-13.063,13.063c-8.248,0-12.014-4.863-12.014-11.871
		V77.07h5.959v20.929c0,5.245,2.241,7.867,6.818,7.867C69.554,105.865,71.89,103.863,71.89,98.714z"/>
</g>
</svg>