<?xml version="1.0" encoding="utf-8"?>
<!-- Generator: Adobe Illustrator 19.2.0, SVG Export Plug-In . SVG Version: 6.00 Build 0)  -->
<svg version="1.1" id="Layer_1" xmlns="http://www.w3.org/2000/svg" xmlns:xlink="http://www.w3.org/1999/xlink" x="0px" y="0px"
	 viewBox="0 0 37.7 38" style="enable-background:new 0 0 37.7 38;" xml:space="preserve">
<style type="text/css">
	.st0{fill:#FFFFFF;}
</style>
<g>
	<path id="XMLID_24_" class="st0" d="M3.9,0.8h6.6c0.6,0,0.8,0.1,1,0.3c0.2,0.2,0.3,0.6,0.2,1c-0.1,2-0.1,4,0,5.7
		c0.2,1.7,0.5,2.6,0.7,2.6c0.1,0,0.2-0.2,0.2-0.6c0-0.2,0-0.3,0-0.3c0.1-0.4,0.3-0.6,0.6-0.6c0.3,0.1,0.5,0.3,0.4,0.6
		c0,0.7-0.2,1.4-0.4,1.8c-0.2,0.5-0.5,0.6-0.8,0.6s-0.6-0.3-0.9-0.7c-0.4-0.6-0.6-1.7-0.8-3c-0.1-0.6-0.1-1.4-0.1-2.2
		c0-0.7,0-1.9,0-3.6c0-0.3,0-0.5-0.1-0.5c-0.1-0.1-0.2-0.1-0.4-0.1H4.1c-0.2,0-0.4,0-0.4,0.1C3.6,2,3.6,2.1,3.6,2.4v1.6
		C3.6,6.3,3.5,8,3.4,9s-0.6,1.9-1,2.5c-0.1,0.2-0.3,0.3-0.4,0.3c-0.1,0-0.3,0-0.4,0c-0.3-0.2-0.3-0.5-0.1-0.8
		c0.7-0.8,1.1-2.7,1.1-5.6V2.1C2.6,1.2,3,0.7,3.9,0.8z M8.7,2.6c0-0.2,0.1-0.3,0.3-0.4c0.1-0.1,0.3-0.1,0.4,0c0.1,0,0.2,0.1,0.3,0.3
		c0.1,0.1,0.1,0.3,0,0.4C9.3,4.1,8.7,5.3,8,6.5c0.8,1.3,1.5,2.5,2,3.7c0.2,0.4,0.1,0.6-0.2,0.7c-0.3,0.1-0.6,0-0.6-0.4
		c-0.4-0.9-0.9-2-1.8-3.2c-1,1.4-1.9,2.4-2.9,3.2c-0.2,0.1-0.3,0.2-0.5,0.2c-0.2,0-0.3,0-0.4-0.2c-0.1-0.1-0.1-0.2-0.1-0.4
		s0.1-0.3,0.3-0.4c1.1-0.9,2.1-2,3-3.3C6,5.2,5.4,4.3,4.7,3.6c-0.2-0.3-0.2-0.5,0-0.7c0.1-0.1,0.2-0.1,0.4-0.1
		c0.1,0,0.3,0.1,0.4,0.2C6,3.3,6.6,4.1,7.4,5.4C8,4.7,8.4,3.7,8.7,2.6z"/>
	<path id="XMLID_18_" class="st0" d="M26,0.7c0.3,0,0.5,0.2,0.5,0.5S26.3,1.6,26,1.6h-4.9v1.2h4c0.7,0,1.1,0.4,1.1,1.1v6.3
		c0,0.6-0.3,1.1-0.9,1.4c-0.3,0.1-0.6,0.2-1.1,0.1c-0.4,0-0.9-0.1-1.4-0.3c-0.3-0.1-0.4-0.4-0.3-0.6c0.1-0.1,0.2-0.2,0.3-0.3
		c0.1,0,0.3-0.1,0.4,0c1.4,0.5,2,0.2,1.9-0.6V4.4c0-0.3,0-0.4-0.1-0.5c0-0.2-0.1-0.2-0.4-0.2h-3.5v7.4c0,0.3-0.2,0.5-0.5,0.5
		s-0.5-0.1-0.6-0.4V3.8h-3.2c-0.5,0-0.6,0.1-0.6,0.5v7.2c0,0.3-0.2,0.5-0.5,0.5c-0.3,0-0.5-0.2-0.5-0.5V3.8c0-0.4,0.1-0.6,0.3-0.7
		c0.2-0.2,0.5-0.2,0.9-0.2h3.7V1.7h-5c-0.3,0-0.5-0.2-0.5-0.5s0.2-0.5,0.5-0.5L26,0.7L26,0.7z M17.4,7.3c0.9,0.6,1.6,1.2,2,1.8
		c0.2,0.3,0.2,0.5,0,0.6c-0.2,0.2-0.5,0.1-0.6-0.1c-0.5-0.6-1.2-1.1-1.9-1.7c-0.2-0.2-0.2-0.4-0.1-0.6C16.9,7.1,17.1,7.1,17.4,7.3z
		 M17.5,4.3c0.9,0.6,1.6,1.2,2,1.8c0.2,0.3,0.2,0.5,0,0.6c-0.2,0.2-0.5,0.1-0.6-0.1c-0.5-0.6-1.2-1.1-1.9-1.7
		c-0.2-0.2-0.2-0.4-0.1-0.6C17,4.1,17.3,4.1,17.5,4.3z M22.4,4.4c0.9,0.6,1.6,1.2,2,1.8c0.2,0.3,0.2,0.5,0,0.6
		c-0.2,0.2-0.5,0.1-0.6-0.1c-0.5-0.6-1.2-1.1-1.9-1.7c-0.2-0.2-0.2-0.4-0.1-0.6C21.9,4.3,22.1,4.2,22.4,4.4z M22.4,7.2
		c0.9,0.6,1.6,1.2,2,1.8c0.2,0.3,0.2,0.5,0,0.6c-0.2,0.2-0.5,0.1-0.6-0.1c-0.5-0.6-1.2-1.1-1.9-1.7c-0.2-0.2-0.2-0.4-0.1-0.6
		C21.9,7.1,22.1,7.1,22.4,7.2z"/>
	<g id="XMLID_14_">
		<path id="XMLID_15_" class="st0" d="M22.4,27.5c0.9,0.6,1.6,1.2,2,1.8c0.2,0.3,0.2,0.5,0,0.6c-0.2,0.2-0.5,0.1-0.6-0.1
			c-0.5-0.6-1.2-1.1-1.9-1.7c-0.2-0.2-0.2-0.4-0.1-0.6C21.9,27.4,22.1,27.3,22.4,27.5z M22.4,30.3c0.9,0.6,1.6,1.2,2,1.8
			c0.2,0.3,0.2,0.5,0,0.6c-0.2,0.2-0.5,0.1-0.6-0.1c-0.5-0.6-1.2-1.1-1.9-1.7c-0.2-0.2-0.2-0.4-0.1-0.6
			C21.9,30.2,22.1,30.2,22.4,30.3z"/>
	</g>
	<path id="XMLID_12_" class="st0" d="M3.6,24.6v-11h6.3v1.7H5.7v3.3h3.7v1.7H5.7v4.4H3.6z"/>
	<path id="XMLID_10_" class="st0" d="M10.9,24.6v-11h6.3v1.7h-4.3v3h3.7v1.7h-3.7V23h4.5v1.7L10.9,24.6L10.9,24.6z"/>
	<path id="XMLID_8_" class="st0" d="M20.3,16c0.1,1,0.1,1.9,0.1,3.5v5.1h-1.9v-11H21l2.8,5.4c0.5,0.9,1,2,1.5,3.1h0.1
		c-0.1-1.3-0.1-2.7-0.1-3.7v-4.6h1.9v11h-2.4l-3-5.6C21.3,18.1,20.8,17.1,20.3,16L20.3,16z"/>
	<path id="XMLID_6_" class="st0" d="M36.4,14.6L35.1,16c-0.5-0.5-1.1-0.8-2.1-0.8c-1.5,0-3,0.8-3,3.8c0,3,1,4.2,3,4.2
		c0.5,0,1.1-0.1,1.4-0.3V19h1.9v4.8c-0.7,0.6-1.9,1-3.8,1c-3.1,0-4.5-1.9-4.5-5.6c0-4,2.2-5.7,5-5.7C35.2,13.4,36.1,14.2,36.4,14.6z
		"/>
	<path id="XMLID_4_" class="st0" d="M13.7,33.4v3.7h-1.9v-3.7L8,26.1h2.2l2.5,5.3h0.1l2.5-5.3h2.1L13.7,33.4z"/>
	<path id="XMLID_2_" class="st0" d="M25.1,33.3v-7.1h1.9v6.9c0,3.1-1.9,4.3-4.3,4.3c-2.7,0-4-1.6-4-3.9v-7.2h1.9v6.9
		c0,1.8,0.7,2.6,2.2,2.6C24.3,35.6,25.1,35,25.1,33.3z"/>
</g>
</svg>
